<?xml version="1.0" encoding="UTF-8"?>
<svg version="1.1" xmlns="http://www.w3.org/2000/svg" width="1024" height="1024">
<path d="M0 0 C337.92 0 675.84 0 1024 0 C1024 337.92 1024 675.84 1024 1024 C686.08 1024 348.16 1024 0 1024 C0 686.08 0 348.16 0 0 Z " fill="#FEFEFE" transform="translate(0,0)"/>
<path d="M0 0 C1.18993561 -0.0071553 2.37987122 -0.01431061 3.60586548 -0.02168274 C5.55939186 -0.02571609 5.55939186 -0.02571609 7.55238342 -0.02983093 C8.94073149 -0.03609913 10.3290779 -0.04274625 11.71742249 -0.04974365 C16.27576028 -0.07075586 20.83409828 -0.081148 25.39247131 -0.09111023 C26.96596862 -0.09515979 28.53946576 -0.09927677 30.11296272 -0.10346031 C37.51172339 -0.12251106 44.91047412 -0.13673855 52.30925459 -0.14507228 C60.82502851 -0.15482428 69.3405411 -0.18109071 77.85622305 -0.22157317 C84.45263277 -0.25184507 91.0489681 -0.26655186 97.64544588 -0.26985329 C101.57787565 -0.2721925 105.51002622 -0.28100322 109.44238091 -0.30631447 C113.15005342 -0.32979299 116.8572669 -0.33375027 120.56499481 -0.32355309 C122.55324775 -0.3228306 124.54147842 -0.34178491 126.52963257 -0.36161804 C139.1432232 -0.28954904 149.91136881 2.28063323 159.17762756 11.14717102 C159.81442444 11.75560852 160.45122131 12.36404602 161.10731506 12.99092102 C168.17129098 20.38838936 172.2820802 29.69292036 172.32479858 39.90707397 C172.33553154 41.6710704 172.33553154 41.6710704 172.34648132 43.47070312 C172.34917023 44.75749466 172.35185913 46.04428619 172.35462952 47.37007141 C172.3608977 48.74196036 172.36754482 50.11384761 172.37454224 51.48573303 C172.39554988 55.9887525 172.40594431 60.49177216 172.41590881 64.99482727 C172.41995817 66.54855809 172.42407514 68.10228874 172.4282589 69.65601921 C172.44730652 76.9597351 172.46153617 84.26344094 172.46987087 91.56717688 C172.47962985 99.97883116 172.50591594 108.39022136 172.54637176 116.80178267 C172.57661412 123.3149347 172.59134757 129.8280114 172.59465188 136.34123224 C172.5969939 140.22553294 172.60584235 144.10955139 172.63111305 147.99377632 C172.6545404 151.65383949 172.65856893 155.31343756 172.64835167 158.97355652 C172.64762692 160.94072479 172.66661635 162.90787021 172.68641663 164.87493896 C172.61279474 177.55274459 168.83587747 187.95574095 160.17762756 197.30732727 C151.97057614 205.14799247 142.56607244 209.24749859 131.22827148 209.29434204 C130.03551605 209.30149734 128.84276062 209.30865265 127.61386108 209.31602478 C126.31353439 209.31871368 125.0132077 209.32140259 123.67347717 209.32417297 C122.28335909 209.33044305 120.89324267 209.33709032 119.50312805 209.34408569 C114.94542088 209.36506962 110.3877136 209.37548504 105.82997131 209.38545227 C104.25613958 209.38950241 102.68230802 209.3936194 101.10847664 209.39780235 C93.7102554 209.41684418 86.31204406 209.43107547 78.91380304 209.43941432 C70.39802933 209.44917331 61.88251646 209.47546189 53.36683458 209.51591522 C46.76957106 209.54617012 40.17238191 209.56089217 33.57505041 209.56419533 C29.6421086 209.56653577 25.70944575 209.57536338 21.7765789 209.60065651 C18.07053767 209.62410624 14.36495573 209.62810358 10.65885925 209.61789513 C8.66923051 209.61717144 6.67962419 209.63614446 4.69009399 209.65596008 C-7.07807878 209.58856509 -16.94084588 207.09270532 -25.82237244 199.14717102 C-27.12174744 198.00248352 -27.12174744 198.00248352 -28.44737244 196.83467102 C-35.91397507 188.38562067 -40.92064129 178.94072586 -40.96954346 167.50115967 C-40.97669876 166.35040451 -40.98385406 165.19964935 -40.9912262 164.01402283 C-40.99525955 162.12591385 -40.99525955 162.12591385 -40.99937439 160.19966125 C-41.00564276 158.85732855 -41.0122899 157.51499756 -41.01928711 156.17266846 C-41.04029281 151.7670461 -41.0506891 147.36142355 -41.06065369 142.95576477 C-41.06470313 141.43546595 -41.06882011 139.91516731 -41.07300377 138.39486885 C-41.09205109 131.24813021 -41.10628072 124.10140184 -41.11461574 116.95464271 C-41.12437413 108.72466742 -41.15065876 100.49496208 -41.19111663 92.26508182 C-41.22136278 85.89205598 -41.2360928 79.51910712 -41.23939675 73.14601094 C-41.24173838 69.34554461 -41.25058151 65.54536681 -41.27585793 61.74497795 C-41.29929193 58.16370628 -41.30331123 54.58290993 -41.29309654 51.00158119 C-41.2923721 49.07735215 -41.31135692 47.15314642 -41.3311615 45.22901917 C-41.25362072 32.1582534 -36.86049218 20.19711954 -27.49815369 10.81904602 C-19.50042929 4.03918547 -10.51903827 0.04347648 0 0 Z " fill="#608099" transform="translate(165.82237243652344,394.8528289794922)"/>
<path d="M0 0 C-4.79473964 16.51648397 -9.81950858 32.95619269 -14.9375 49.375 C-15.24134613 50.35041748 -15.54519226 51.32583496 -15.85824585 52.33081055 C-18.57464886 61.04968825 -21.29286718 69.76796199 -24.04124451 78.4768219 C-33.04982047 105.36369207 -33.04982047 105.36369207 -39 133 C-42.23580794 131.38209603 -43.12337762 127.96304089 -44.625 124.8125 C-50.52422407 111.67860212 -50.52422407 111.67860212 -58.79296875 100.171875 C-61.06119857 96.09052943 -59.55457764 91.03508377 -58.36930847 86.68560791 C-57.5847882 84.2866703 -56.74362738 81.91663284 -55.875 79.546875 C-55.56804199 78.6836261 -55.26108398 77.8203772 -54.94482422 76.93096924 C-53.9723484 74.20060864 -52.98693081 71.47516511 -52 68.75 C-51.0153069 66.00981684 -50.03343229 63.26867174 -49.05517578 60.52618408 C-48.44840975 58.82735864 -47.83759369 57.12997269 -47.22216797 55.43426514 C-45.86087493 51.64309571 -44.62697735 47.99698061 -44 44 C-50.2348914 45.22282903 -56.05072613 46.95603807 -61.98046875 49.22265625 C-62.79695389 49.52819931 -63.61343903 49.83374237 -64.45466614 50.14854431 C-67.03444257 51.11421498 -69.61125959 52.08743856 -72.1875 53.0625 C-75.59532759 54.35135584 -79.00582437 55.63277985 -82.41796875 56.91015625 C-83.57597237 57.35235252 -83.57597237 57.35235252 -84.75737 57.80348206 C-95.14680007 61.69280268 -95.14680007 61.69280268 -99.63378906 60.01538086 C-100.50229492 59.50370361 -101.37080078 58.99202637 -102.265625 58.46484375 C-103.23886719 57.90216797 -104.21210938 57.33949219 -105.21484375 56.75976562 C-106.21644531 56.15841797 -107.21804687 55.55707031 -108.25 54.9375 C-109.23613281 54.36322266 -110.22226563 53.78894531 -111.23828125 53.19726562 C-114.17061801 51.48383828 -117.08737218 49.7466893 -120 48 C-120.97775391 47.41492676 -121.95550781 46.82985352 -122.96289062 46.22705078 C-125.31014938 44.82059782 -127.65588924 43.41169136 -130 42 C-127.80805431 39.80805431 -126.59591894 39.38563038 -123.68530273 38.46630859 C-122.32839577 38.03257935 -122.32839577 38.03257935 -120.94407654 37.59008789 C-119.45388756 37.12397095 -119.45388756 37.12397095 -117.93359375 36.6484375 C-116.89255997 36.317229 -115.85152618 35.98602051 -114.77894592 35.64477539 C-112.51867057 34.9262927 -110.2575173 34.21056745 -107.99560547 33.49725342 C-101.96061848 31.59377281 -95.93203823 29.67016538 -89.90234375 27.75 C-88.66499481 27.35662445 -87.42764587 26.9632489 -86.15280151 26.55795288 C-73.58178181 22.5582641 -61.03818542 18.47626061 -48.5 14.375 C-46.52791717 13.73094552 -44.55583068 13.08690226 -42.58374023 12.44287109 C-40.6912243 11.82395191 -38.79872716 11.20497525 -36.90625 10.5859375 C-36.00185684 10.2907724 -35.09746368 9.9956073 -34.16566467 9.6914978 C-29.46898908 8.15432327 -24.78359528 6.58960964 -20.109375 4.98535156 C-19.15236694 4.65910797 -18.19535889 4.33286438 -17.20935059 3.99673462 C-15.39079777 3.37543072 -13.57432137 2.74800262 -11.76037598 2.1133728 C-4.30341162 -0.42748394 -4.30341162 -0.42748394 0 0 Z " fill="#ACC6DC" transform="translate(295,435)"/>
<path d="M0 0 C0.87454834 0.00523682 1.74909668 0.01047363 2.65014648 0.01586914 C3.50036377 0.0183667 4.35058105 0.02086426 5.2265625 0.0234375 C6.85742798 0.03709351 6.85742798 0.03709351 8.52124023 0.05102539 C10.38313596 0.06251376 12.24503394 0.07364 14.10693359 0.08447266 C15.72420247 0.0941569 17.34147135 0.10384115 18.95874023 0.11352539 C25.54277466 16.28732299 31.73352738 32.60405281 37.87854004 48.94805908 C38.90610398 51.67921587 39.93608706 54.40945755 40.96609783 57.13969231 C41.97691652 59.81973791 42.98648656 62.50025255 43.99567604 65.18091202 C44.69350337 67.03412707 45.3921081 68.88704934 46.09074402 70.73995972 C49.13297397 78.83561776 52.06743312 86.96302193 54.95874023 95.11352539 C48.02874023 95.11352539 41.09874023 95.11352539 33.95874023 95.11352539 C31.64874023 88.84352539 29.33874023 82.57352539 26.95874023 76.11352539 C14.74874023 76.11352539 2.53874023 76.11352539 -10.04125977 76.11352539 C-12.35125977 82.38352539 -14.66125977 88.65352539 -17.04125977 95.11352539 C-23.64125977 95.11352539 -30.24125977 95.11352539 -37.04125977 95.11352539 C-36.29317092 90.62499231 -35.54572164 87.40989246 -33.94604492 83.2824707 C-33.51286957 82.15444031 -33.07969421 81.02640991 -32.63339233 79.86419678 C-32.16212921 78.65225647 -31.69086609 77.44031616 -31.20532227 76.19165039 C-30.19666033 73.57085509 -29.19202983 70.94851686 -28.18676758 68.32641602 C-27.92725752 67.65121792 -27.66774746 66.97601982 -27.40037346 66.28036118 C-24.85746149 59.65744963 -22.37857748 53.01137567 -19.91240692 46.35957336 C-19.19093987 44.41375175 -18.46835197 42.46834995 -17.74542236 40.52307129 C-15.79868143 35.28402627 -13.85357183 30.0443799 -11.91186523 24.8034668 C-10.69551837 21.52074829 -9.4765398 18.23901766 -8.25581741 14.95792389 C-7.5774325 13.13217494 -6.90201458 11.30532445 -6.22665405 9.47845459 C-5.82177765 8.39090881 -5.41690125 7.30336304 -4.99975586 6.18286133 C-4.64432709 5.22442322 -4.28889832 4.26598511 -3.92269897 3.27850342 C-2.64785959 0.14726166 -2.64785959 0.14726166 0 0 Z " fill="#0C2E4E" transform="translate(445.041259765625,399.886474609375)"/>
<path d="M0 0 C42.91310976 0 42.91310976 0 50.4921875 7.2265625 C55.89891813 13.58577417 56.719907 20.3776161 56.4375 28.55859375 C55.62838947 34.92311495 53.65444666 39.78944074 48.6640625 43.9453125 C46.48979441 45.41997382 44.31443084 46.75958609 42 48 C43.39112466 51.77207162 45.13355395 55.0394124 47.2578125 58.44921875 C47.88300781 59.46177734 48.50820313 60.47433594 49.15234375 61.51757812 C50.47488569 63.64281136 51.79780659 65.76780882 53.12109375 67.89257812 C53.74371094 68.90126953 54.36632812 69.90996094 55.0078125 70.94921875 C55.58160645 71.87049561 56.15540039 72.79177246 56.74658203 73.7409668 C58 76 58 76 58 78 C52.36349437 78.87362602 46.53814248 79.76481616 41 78 C36.43987427 74.29904887 34.31058961 68.24505099 32 63 C30.90835235 60.67090869 29.75786353 58.40580858 28.5625 56.125 C28.11003906 55.15820312 27.65757812 54.19140625 27.19140625 53.1953125 C24.33108023 49.86599803 24.33108023 49.86599803 15 50 C15 59.24 15 68.48 15 78 C10.05 78 5.1 78 0 78 C0 52.26 0 26.52 0 0 Z " fill="#0A2C4B" transform="translate(843,523)"/>
<path d="M0 0 C15 0 15 0 19.0703125 3.85546875 C20.14377326 5.60000979 21.15995288 7.38072788 22.125 9.1875 C22.68574219 10.12698486 23.24648438 11.06646973 23.82421875 12.03442383 C24.99751468 14.00615814 26.14867499 15.99121816 27.27832031 17.98828125 C29.51245915 21.89644017 31.90727114 25.69209657 34.30810547 29.49926758 C38.98526024 36.93074682 43.48240021 44.47066702 48 52 C48.33 34.84 48.66 17.68 49 0 C53.95 0 58.9 0 64 0 C64 26.07 64 52.14 64 79 C48 79 48 79 44.63671875 76.0625 C43.59790039 74.12524414 43.59790039 74.12524414 42.6875 72 C41.9135471 70.51707251 41.13474962 69.03666512 40.3515625 67.55859375 C39.97032227 66.79788574 39.58908203 66.03717773 39.19628906 65.25341797 C37.2816647 61.64689086 34.93092482 58.38137009 32.5625 55.0625 C28.55546696 49.32016025 24.67569103 43.505938 20.875 37.625 C20.4013501 36.89289307 19.9277002 36.16078613 19.43969727 35.40649414 C16.13862097 30.27724193 16.13862097 30.27724193 15 28 C15 44.83 15 61.66 15 79 C10.05 79 5.1 79 0 79 C0 52.93 0 26.86 0 0 Z " fill="#0B2D4C" transform="translate(618,523)"/>
<path d="M0 0 C4.95 0 9.9 0 15 0 C18.8272419 3.91991119 21.3202297 7.18406164 23.9375 11.8125 C24.67679191 13.02606044 25.42085734 14.23672451 26.16943359 15.44458008 C28.11426667 18.61230061 29.99031939 21.81558184 31.8526001 25.03234863 C34.1016692 28.88922877 36.42676334 32.70075639 38.73725891 36.52102661 C42.22502459 42.31093382 45.59829946 48.15525998 49 54 C49 36.18 49 18.36 49 0 C53.95 0 58.9 0 64 0 C64 26.07 64 52.14 64 79 C48 79 48 79 44.4453125 75.79296875 C43.23999023 73.61376953 43.23999023 73.61376953 42.125 71.1875 C41.18794051 69.45585593 40.24343541 67.7282278 39.29296875 66.00390625 C38.78685059 65.05273926 38.28073242 64.10157227 37.75927734 63.12158203 C34.69995707 57.69326271 31.16320835 52.58292829 27.66375732 47.43154907 C25.69973889 44.53811422 23.75422513 41.63237701 21.80859375 38.7265625 C21.14657959 37.74252441 20.48456543 36.75848633 19.80249023 35.74462891 C18.13503248 33.20561223 16.56283292 30.60472154 15 28 C15 44.83 15 61.66 15 79 C10.05 79 5.1 79 0 79 C0 52.93 0 26.86 0 0 Z " fill="#0B2D4D" transform="translate(698,523)"/>
<path d="M0 0 C41.35294118 0 41.35294118 0 50 7 C56.85560698 14.24735595 57.51579329 20.77252881 57.27734375 30.47265625 C56.66456836 38.26612347 52.91700813 43.93925649 47 49 C37.79830749 54.83482101 26.3878082 53.27886733 16 53 C16 61.25 16 69.5 16 78 C10.72 78 5.44 78 0 78 C0 52.26 0 26.52 0 0 Z " fill="#0C2D4D" transform="translate(408,523)"/>
<path d="M0 0 C6.27 0 12.54 0 19 0 C19.6084375 1.73894531 20.216875 3.47789062 20.84375 5.26953125 C27.27821045 23.56885669 33.96149839 41.76694756 40.77929688 59.92700195 C41.11814911 60.83181305 41.45700134 61.73662415 41.80612183 62.66885376 C42.44492071 64.37422801 43.08554612 66.07891959 43.728302 67.7828064 C44.01341644 68.54437042 44.29853088 69.30593445 44.59228516 70.09057617 C44.84112457 70.75208176 45.08996399 71.41358734 45.34634399 72.09513855 C46.00977686 74.02849138 46.5042536 76.01701441 47 78 C41.39 78 35.78 78 30 78 C28.02 72.72 26.04 67.44 24 62 C14.43 62 4.86 62 -5 62 C-6.65 67.28 -8.3 72.56 -10 78 C-15.61 78 -21.22 78 -27 78 C-25.4808876 70.05259851 -22.87080636 62.64429673 -20.09765625 55.05859375 C-19.61398516 53.72315736 -19.13079391 52.38754709 -18.64805603 51.05177307 C-17.38335046 47.55639537 -16.111965 44.0634845 -14.83917236 40.57104492 C-13.55061485 37.03133439 -12.26887806 33.48915622 -10.98632812 29.94726562 C-7.36350606 19.94988752 -3.7337564 9.95668375 0 0 Z " fill="#0B2D4D" transform="translate(560,524)"/>
<path d="M0 0 C16.5 0 33 0 50 0 C50 4.95 50 9.9 50 15 C38.78 15 27.56 15 16 15 C16 20.61 16 26.22 16 32 C26.23 32 36.46 32 47 32 C47 36.62 47 41.24 47 46 C36.77 46 26.54 46 16 46 C16 51.94 16 57.88 16 64 C27.55 64 39.1 64 51 64 C51 68.62 51 73.24 51 78 C34.17 78 17.34 78 0 78 C0 52.26 0 26.52 0 0 Z " fill="#0A2D4D" transform="translate(778,523)"/>
<path d="M0 0 C6.27 0 12.54 0 19 0 C19 31.35 19 62.7 19 95 C12.73 95 6.46 95 0 95 C0 63.65 0 32.3 0 0 Z " fill="#0A2B4A" transform="translate(513,400)"/>
<path d="M0 0 C5.28 0 10.56 0 16 0 C16 21.12 16 42.24 16 64 C26.23 64 36.46 64 47 64 C47 68.95 47 73.9 47 79 C23.735 78.505 23.735 78.505 0 78 C0 52.26 0 26.52 0 0 Z " fill="#0A2C4C" transform="translate(477,523)"/>
<path d="M0 0 C16.82978723 -0.44680851 16.82978723 -0.44680851 22 3 C24.89432673 6.26539426 25.90492391 8.225809 26.4375 12.5625 C25.8140352 17.46115197 23.78703105 20.84414079 20 24 C17.29283758 24.90238747 15.76223232 25.11851302 12.98828125 25.09765625 C11.96408081 25.09390991 11.96408081 25.09390991 10.91918945 25.09008789 C10.05898193 25.08098389 9.19877441 25.07187988 8.3125 25.0625 C4.1978125 25.0315625 4.1978125 25.0315625 0 25 C0 16.75 0 8.5 0 0 Z " fill="#FAFBFB" transform="translate(424,537)"/>
<path d="M0 0 C4.5478125 -0.12375 4.5478125 -0.12375 9.1875 -0.25 C10.60712036 -0.30462402 10.60712036 -0.30462402 12.05541992 -0.36035156 C16.21574001 -0.41511005 18.4337676 -0.35090458 22.05078125 1.890625 C25.4890337 5.61137916 25.32840281 8.6115517 25.29296875 13.515625 C24.88537873 16.97198834 23.53723498 18.68663869 21 21 C18.65147472 22.17426264 17.26225935 22.11508173 14.6484375 22.09765625 C13.88192871 22.09515869 13.11541992 22.09266113 12.32568359 22.09008789 C11.35195801 22.08098389 10.37823242 22.07187988 9.375 22.0625 C6.28125 22.041875 3.1875 22.02125 0 22 C0 14.74 0 7.48 0 0 Z " fill="#FCFCFD" transform="translate(858,537)"/>
<path d="M0 0 C2.23607941 3.35411912 3.36487987 6.71852048 4.6015625 10.51171875 C4.8428891 11.23994339 5.0842157 11.96816803 5.33285522 12.71846008 C6.10114575 15.04009724 6.86314436 17.36374422 7.625 19.6875 C8.14541968 21.2638085 8.66624823 22.83998208 9.1875 24.41601562 C10.46385412 28.27556415 11.73167763 32.13776751 13 36 C4.75 36 -3.5 36 -12 36 C-8.625 24.75 -8.625 24.75 -6.73828125 19.3359375 C-6.34189453 18.19511719 -5.94550781 17.05429687 -5.53710938 15.87890625 C-5.13298828 14.72261719 -4.72886719 13.56632812 -4.3125 12.375 C-3.68891602 10.58255859 -3.68891602 10.58255859 -3.05273438 8.75390625 C-2.03704961 5.83527186 -1.01943395 2.91732651 0 0 Z " fill="#FAFBFC" transform="translate(453,422)"/>
<path d="M0 0 C2.98206675 4.47310012 4.38011464 9.43798276 6.125 14.5 C6.49753906 15.55832031 6.87007812 16.61664062 7.25390625 17.70703125 C7.60582031 18.72152344 7.95773437 19.73601563 8.3203125 20.78125 C8.80395264 22.1744043 8.80395264 22.1744043 9.29736328 23.59570312 C10 26 10 26 10 29 C3.73 29 -2.54 29 -9 29 C-6.75 18.875 -6.75 18.875 -5.2734375 14.74609375 C-4.809375 13.43608398 -4.809375 13.43608398 -4.3359375 12.09960938 C-4.01882813 11.22111328 -3.70171875 10.34261719 -3.375 9.4375 C-3.05015625 8.52419922 -2.7253125 7.61089844 -2.390625 6.66992188 C-1.59846371 4.44488059 -0.8015341 2.22167825 0 0 Z " fill="#F7F9FA" transform="translate(569,542)"/>
<path d="M0 0 C16.5 0 33 0 50 0 C50 4.95 50 9.9 50 15 C38.78 15 27.56 15 16 15 C16 20.61 16 26.22 16 32 C15.67 32 15.34 32 15 32 C15 26.06 15 20.12 15 14 C25.89 14 36.78 14 48 14 C48 10.04 48 6.08 48 2 C32.49 2 16.98 2 1 2 C1 27.08 1 52.16 1 78 C0.67 78 0.34 78 0 78 C0 52.26 0 26.52 0 0 Z " fill="#19314E" transform="translate(778,523)"/>
<path d="M0 0 C4.95 0 9.9 0 15 0 C15 26.07 15 52.14 15 79 C9.72 79 4.44 79 -1 79 C-1.33 78.01 -1.66 77.02 -2 76 C2.95 76.33 7.9 76.66 13 77 C13 51.92 13 26.84 13 1 C9.04 1 5.08 1 1 1 C1 12.88 1 24.76 1 37 C0.67 37 0.34 37 0 37 C0 24.79 0 12.58 0 0 Z " fill="#011939" transform="translate(747,523)"/>
</svg>
